<svg xmlns="http://www.w3.org/2000/svg" xmlns:xlink="http://www.w3.org/1999/xlink" version="1.1" x="0px" y="0px" viewBox="0 0 91 113.75" enable-background="new 0 0 91 91" xml:space="preserve"><g><path fill-rule="evenodd" clip-rule="evenodd" fill="none" stroke="#000000" stroke-width="3" stroke-miterlimit="10" d="   M81.701,20.14c-1.708-2.013-3.893-2.783-6.48-1.869c-1.85,0.654-3.654,1.432-5.515,2.051c-4.771,1.589-8.311,0.241-10.61-4.079   c-0.624-1.172-1.041-2.464-1.475-3.728c-2.264-6.61-8.359-10.839-15.175-10.503C34.582,2.4,28.843,7.079,27.256,14.335   c-0.666,3.041-1.26,6.114-2.195,9.075c-1.129,3.568-3.522,4.91-7.225,4.456c-1.684-0.207-3.362-0.465-4.76-0.66   c-2.734-0.01-4.697,0.81-5.582,3.264c-0.877,2.427,0.131,5.551,2.373,7.158c2.265,1.624,4.796,2.841,7.508,3.415   c5.616,1.186,8.646,4.542,10.078,10.078c1.952,7.546,5.69,14.175,11.434,19.646c4.88,4.649,6.449,10.363,4.314,16.879   c-0.502,1.533-0.152,1.753,1.28,1.297c3.718-1.181,7.06-3.035,9.922-5.656c9.647-8.839,14.123-19.966,14.194-32.923   c0.04-7.221,2.577-13.203,8.136-17.875c1.915-1.61,3.785-3.278,5.135-5.431C83.489,24.466,83.506,22.265,81.701,20.14z    M34.385,26.793c-1.806-0.04-3.031-1.273-3.013-3.073c0.018-1.905,1.204-3.049,3.332-3.127c1.752,0.197,2.812,1.205,2.833,3.084   C37.56,25.74,36.309,26.837,34.385,26.793z M44.721,33.371c-1.809,0.222-3.373-1.675-3.417-3.923   c-0.045-2.382,1.128-3.88,3.042-3.884c1.817-0.004,3.393,1.869,3.361,4.07C47.678,31.63,46.837,33.111,44.721,33.371z    M52.37,24.722c-1.785-0.034-3.022-1.148-3.003-3.094c0.019-1.94,1.316-3.069,3.051-3.068c1.756,0.001,2.937,1.162,2.971,3.006   C55.342,23.654,54.188,24.756,52.37,24.722z"/></g><text x="0" y="106" fill="#000000" font-size="5px" font-weight="bold" font-family="'Helvetica Neue', Helvetica, Arial-Unicode, Arial, Sans-serif">Created by IconsGhost </text><text x="0" y="111" fill="#000000" font-size="5px" font-weight="bold" font-family="'Helvetica Neue', Helvetica, Arial-Unicode, Arial, Sans-serif">from the Noun Project</text></svg>